<?xml version="1.0" encoding="UTF-8"?><svg xmlns="http://www.w3.org/2000/svg" xmlns:xlink="http://www.w3.org/1999/xlink" fill-opacity="1" color-rendering="auto" color-interpolation="auto" text-rendering="auto" stroke="black" stroke-linecap="square" width="480" stroke-miterlimit="10" shape-rendering="auto" stroke-opacity="1" fill="black" stroke-dasharray="none" font-weight="normal" stroke-width="1" height="342" font-family="'Dialog'" font-style="normal" stroke-linejoin="miter" font-size="12px" stroke-dashoffset="0" image-rendering="auto">
  <!--Generated by ySVG 2.5-->
  <defs id="genericDefs"/>
  <g>
    <defs id="defs1">
      <linearGradient x1="445" gradientUnits="userSpaceOnUse" x2="465" y1="45" y2="45" id="linearGradient1" spreadMethod="reflect">
        <stop stop-opacity="0.902" stop-color="rgb(255,255,255)" offset="0%"/>
        <stop stop-opacity="0.8" stop-color="rgb(212,212,212)" offset="100%"/>
      </linearGradient>
      <linearGradient x1="715" gradientUnits="userSpaceOnUse" x2="735" y1="45" y2="45" id="linearGradient2" spreadMethod="reflect">
        <stop stop-opacity="0.902" stop-color="rgb(255,255,255)" offset="0%"/>
        <stop stop-opacity="0.8" stop-color="rgb(212,212,212)" offset="100%"/>
      </linearGradient>
      <linearGradient x1="565" gradientUnits="userSpaceOnUse" x2="585" y1="225" y2="225" id="linearGradient3" spreadMethod="reflect">
        <stop stop-opacity="0.902" stop-color="rgb(255,255,255)" offset="0%"/>
        <stop stop-opacity="0.8" stop-color="rgb(212,212,212)" offset="100%"/>
      </linearGradient>
      <linearGradient x1="445" gradientUnits="userSpaceOnUse" x2="465" y1="105" y2="105" id="linearGradient4" spreadMethod="reflect">
        <stop stop-opacity="0.902" stop-color="rgb(255,255,255)" offset="0%"/>
        <stop stop-opacity="0.8" stop-color="rgb(212,212,212)" offset="100%"/>
      </linearGradient>
      <linearGradient x1="475" gradientUnits="userSpaceOnUse" x2="495" y1="225" y2="225" id="linearGradient5" spreadMethod="reflect">
        <stop stop-opacity="0.902" stop-color="rgb(255,255,255)" offset="0%"/>
        <stop stop-opacity="0.8" stop-color="rgb(212,212,212)" offset="100%"/>
      </linearGradient>
      <linearGradient x1="385" gradientUnits="userSpaceOnUse" x2="405" y1="225" y2="225" id="linearGradient6" spreadMethod="reflect">
        <stop stop-opacity="0.902" stop-color="rgb(255,255,255)" offset="0%"/>
        <stop stop-opacity="0.8" stop-color="rgb(212,212,212)" offset="100%"/>
      </linearGradient>
      <linearGradient x1="655" gradientUnits="userSpaceOnUse" x2="675" y1="225" y2="225" id="linearGradient7" spreadMethod="reflect">
        <stop stop-opacity="0.902" stop-color="rgb(255,255,255)" offset="0%"/>
        <stop stop-opacity="0.8" stop-color="rgb(212,212,212)" offset="100%"/>
      </linearGradient>
      <linearGradient x1="745" gradientUnits="userSpaceOnUse" x2="765" y1="225" y2="225" id="linearGradient8" spreadMethod="reflect">
        <stop stop-opacity="0.902" stop-color="rgb(255,255,255)" offset="0%"/>
        <stop stop-opacity="0.8" stop-color="rgb(212,212,212)" offset="100%"/>
      </linearGradient>
      <linearGradient x1="535" gradientUnits="userSpaceOnUse" x2="555" y1="-56.5472" y2="-56.5472" id="linearGradient9" spreadMethod="reflect">
        <stop stop-opacity="0.902" stop-color="rgb(255,255,255)" offset="0%"/>
        <stop stop-opacity="0.8" stop-color="rgb(212,212,212)" offset="100%"/>
      </linearGradient>
      <linearGradient x1="520" gradientUnits="userSpaceOnUse" x2="540" y1="165" y2="165" id="linearGradient10" spreadMethod="reflect">
        <stop stop-opacity="0.902" stop-color="rgb(255,255,255)" offset="0%"/>
        <stop stop-opacity="0.8" stop-color="rgb(212,212,212)" offset="100%"/>
      </linearGradient>
      <linearGradient x1="655" gradientUnits="userSpaceOnUse" x2="675" y1="135" y2="135" id="linearGradient11" spreadMethod="reflect">
        <stop stop-opacity="0.902" stop-color="rgb(255,255,255)" offset="0%"/>
        <stop stop-opacity="0.8" stop-color="rgb(212,212,212)" offset="100%"/>
      </linearGradient>
      <linearGradient x1="595" gradientUnits="userSpaceOnUse" x2="615" y1="165" y2="165" id="linearGradient12" spreadMethod="reflect">
        <stop stop-opacity="0.902" stop-color="rgb(255,255,255)" offset="0%"/>
        <stop stop-opacity="0.8" stop-color="rgb(212,212,212)" offset="100%"/>
      </linearGradient>
      <linearGradient x1="520" gradientUnits="userSpaceOnUse" x2="540" y1="45" y2="45" id="linearGradient13" spreadMethod="reflect">
        <stop stop-opacity="0.902" stop-color="rgb(255,255,255)" offset="0%"/>
        <stop stop-opacity="0.8" stop-color="rgb(212,212,212)" offset="100%"/>
      </linearGradient>
      <linearGradient x1="520" gradientUnits="userSpaceOnUse" x2="540" y1="105" y2="105" id="linearGradient14" spreadMethod="reflect">
        <stop stop-opacity="0.902" stop-color="rgb(255,255,255)" offset="0%"/>
        <stop stop-opacity="0.8" stop-color="rgb(212,212,212)" offset="100%"/>
      </linearGradient>
      <linearGradient x1="595" gradientUnits="userSpaceOnUse" x2="615" y1="105" y2="105" id="linearGradient15" spreadMethod="reflect">
        <stop stop-opacity="0.902" stop-color="rgb(255,255,255)" offset="0%"/>
        <stop stop-opacity="0.8" stop-color="rgb(212,212,212)" offset="100%"/>
      </linearGradient>
      <linearGradient x1="655" gradientUnits="userSpaceOnUse" x2="675" y1="45" y2="45" id="linearGradient16" spreadMethod="reflect">
        <stop stop-opacity="0.902" stop-color="rgb(255,255,255)" offset="0%"/>
        <stop stop-opacity="0.8" stop-color="rgb(212,212,212)" offset="100%"/>
      </linearGradient>
      <linearGradient x1="385" gradientUnits="userSpaceOnUse" x2="405" y1="165" y2="165" id="linearGradient17" spreadMethod="reflect">
        <stop stop-opacity="0.902" stop-color="rgb(255,255,255)" offset="0%"/>
        <stop stop-opacity="0.8" stop-color="rgb(212,212,212)" offset="100%"/>
      </linearGradient>
      <linearGradient x1="580" gradientUnits="userSpaceOnUse" x2="600" y1="45" y2="45" id="linearGradient18" spreadMethod="reflect">
        <stop stop-opacity="0.902" stop-color="rgb(255,255,255)" offset="0%"/>
        <stop stop-opacity="0.8" stop-color="rgb(212,212,212)" offset="100%"/>
      </linearGradient>
      <linearGradient x1="385" gradientUnits="userSpaceOnUse" x2="405" y1="45" y2="45" id="linearGradient19" spreadMethod="reflect">
        <stop stop-opacity="0.902" stop-color="rgb(255,255,255)" offset="0%"/>
        <stop stop-opacity="0.8" stop-color="rgb(212,212,212)" offset="100%"/>
      </linearGradient>
      <linearGradient x1="535" gradientUnits="userSpaceOnUse" x2="555" y1="-5.4" y2="-5.4" id="linearGradient20" spreadMethod="reflect">
        <stop stop-opacity="0.902" stop-color="rgb(255,255,255)" offset="0%"/>
        <stop stop-opacity="0.8" stop-color="rgb(212,212,212)" offset="100%"/>
      </linearGradient>
      <linearGradient x1="625" gradientUnits="userSpaceOnUse" x2="645" y1="-5.4" y2="-5.4" id="linearGradient21" spreadMethod="reflect">
        <stop stop-opacity="0.902" stop-color="rgb(255,255,255)" offset="0%"/>
        <stop stop-opacity="0.8" stop-color="rgb(212,212,212)" offset="100%"/>
      </linearGradient>
      <linearGradient x1="745" gradientUnits="userSpaceOnUse" x2="765" y1="105" y2="105" id="linearGradient22" spreadMethod="reflect">
        <stop stop-opacity="0.902" stop-color="rgb(255,255,255)" offset="0%"/>
        <stop stop-opacity="0.8" stop-color="rgb(212,212,212)" offset="100%"/>
      </linearGradient>
      <linearGradient x1="805" gradientUnits="userSpaceOnUse" x2="825" y1="105" y2="105" id="linearGradient23" spreadMethod="reflect">
        <stop stop-opacity="0.902" stop-color="rgb(255,255,255)" offset="0%"/>
        <stop stop-opacity="0.8" stop-color="rgb(212,212,212)" offset="100%"/>
      </linearGradient>
      <clipPath clipPathUnits="userSpaceOnUse" id="clipPath1">
        <path d="M0 0 L480 0 L480 342 L0 342 L0 0 Z"/>
      </clipPath>
      <clipPath clipPathUnits="userSpaceOnUse" id="clipPath2">
        <path d="M360 -72 L840 -72 L840 270 L360 270 L360 -72 Z"/>
      </clipPath>
    </defs>
    <g fill="white" text-rendering="geometricPrecision" shape-rendering="geometricPrecision" transform="translate(-360,72)" stroke="white">
      <rect x="360" width="480" height="342" y="-72" clip-path="url(#clipPath2)" stroke="none"/>
    </g>
    <g fill="url(#linearGradient1)" text-rendering="geometricPrecision" shape-rendering="geometricPrecision" transform="matrix(1,0,0,1,-360,72)" stroke="url(#linearGradient1)">
      <circle r="15" clip-path="url(#clipPath2)" cx="450" cy="60" stroke="none"/>
    </g>
    <g stroke-linecap="butt" transform="matrix(1,0,0,1,-360,72)" fill="rgb(18,62,162)" text-rendering="geometricPrecision" shape-rendering="geometricPrecision" stroke="rgb(18,62,162)" stroke-miterlimit="1.45">
      <circle fill="none" r="15" clip-path="url(#clipPath2)" cx="450" cy="60"/>
    </g>
    <g fill="url(#linearGradient2)" text-rendering="geometricPrecision" shape-rendering="geometricPrecision" transform="matrix(1,0,0,1,-360,72)" stroke="url(#linearGradient2)">
      <path d="M720 75 L724.5 67.7942 L732.9904 67.5 L729 60 L732.9904 52.5 L724.5 52.2058 L720 45 L715.5 52.2058 L707.0096 52.5 L711 60 L707.0096 67.5 L715.5 67.7942 Z" fill-rule="evenodd" clip-path="url(#clipPath2)" stroke="none"/>
    </g>
    <g stroke-linecap="butt" transform="matrix(1,0,0,1,-360,72)" fill="rgb(18,62,162)" text-rendering="geometricPrecision" shape-rendering="geometricPrecision" stroke="rgb(18,62,162)" stroke-miterlimit="1.45">
      <path fill="none" d="M720 75 L724.5 67.7942 L732.9904 67.5 L729 60 L732.9904 52.5 L724.5 52.2058 L720 45 L715.5 52.2058 L707.0096 52.5 L711 60 L707.0096 67.5 L715.5 67.7942 Z" fill-rule="evenodd" clip-path="url(#clipPath2)"/>
    </g>
    <g fill="url(#linearGradient3)" text-rendering="geometricPrecision" shape-rendering="geometricPrecision" transform="matrix(1,0,0,1,-360,72)" stroke="url(#linearGradient3)">
      <rect x="555" width="30" height="30" y="225" clip-path="url(#clipPath2)" stroke="none"/>
    </g>
    <g stroke-linecap="butt" transform="matrix(1,0,0,1,-360,72)" fill="rgb(18,62,162)" text-rendering="geometricPrecision" shape-rendering="geometricPrecision" stroke="rgb(18,62,162)" stroke-miterlimit="1.45">
      <rect fill="none" x="555" width="30" height="30" y="225" clip-path="url(#clipPath2)"/>
    </g>
    <g fill="url(#linearGradient4)" text-rendering="geometricPrecision" shape-rendering="geometricPrecision" transform="matrix(1,0,0,1,-360,72)" stroke="url(#linearGradient4)">
      <circle r="15" clip-path="url(#clipPath2)" cx="450" cy="120" stroke="none"/>
    </g>
    <g stroke-linecap="butt" transform="matrix(1,0,0,1,-360,72)" fill="rgb(18,62,162)" text-rendering="geometricPrecision" shape-rendering="geometricPrecision" stroke="rgb(18,62,162)" stroke-miterlimit="1.45">
      <circle fill="none" r="15" clip-path="url(#clipPath2)" cx="450" cy="120"/>
    </g>
    <g fill="url(#linearGradient5)" text-rendering="geometricPrecision" shape-rendering="geometricPrecision" transform="matrix(1,0,0,1,-360,72)" stroke="url(#linearGradient5)">
      <rect x="465" width="30" height="30" y="225" clip-path="url(#clipPath2)" stroke="none"/>
    </g>
    <g stroke-linecap="butt" transform="matrix(1,0,0,1,-360,72)" fill="rgb(18,62,162)" text-rendering="geometricPrecision" shape-rendering="geometricPrecision" stroke="rgb(18,62,162)" stroke-miterlimit="1.45">
      <rect fill="none" x="465" width="30" height="30" y="225" clip-path="url(#clipPath2)"/>
    </g>
    <g fill="url(#linearGradient6)" text-rendering="geometricPrecision" shape-rendering="geometricPrecision" transform="matrix(1,0,0,1,-360,72)" stroke="url(#linearGradient6)">
      <rect x="375" width="30" height="30" y="225" clip-path="url(#clipPath2)" stroke="none"/>
    </g>
    <g stroke-linecap="butt" transform="matrix(1,0,0,1,-360,72)" fill="rgb(18,62,162)" text-rendering="geometricPrecision" shape-rendering="geometricPrecision" stroke="rgb(18,62,162)" stroke-miterlimit="1.45">
      <rect fill="none" x="375" width="30" height="30" y="225" clip-path="url(#clipPath2)"/>
    </g>
    <g fill="url(#linearGradient7)" text-rendering="geometricPrecision" shape-rendering="geometricPrecision" transform="matrix(1,0,0,1,-360,72)" stroke="url(#linearGradient7)">
      <rect x="645" width="30" height="30" y="225" clip-path="url(#clipPath2)" stroke="none"/>
    </g>
    <g stroke-linecap="butt" transform="matrix(1,0,0,1,-360,72)" fill="rgb(18,62,162)" text-rendering="geometricPrecision" shape-rendering="geometricPrecision" stroke="rgb(18,62,162)" stroke-miterlimit="1.45">
      <rect fill="none" x="645" width="30" height="30" y="225" clip-path="url(#clipPath2)"/>
    </g>
    <g fill="url(#linearGradient8)" text-rendering="geometricPrecision" shape-rendering="geometricPrecision" transform="matrix(1,0,0,1,-360,72)" stroke="url(#linearGradient8)">
      <rect x="735" width="30" height="30" y="225" clip-path="url(#clipPath2)" stroke="none"/>
    </g>
    <g stroke-linecap="butt" transform="matrix(1,0,0,1,-360,72)" fill="rgb(18,62,162)" text-rendering="geometricPrecision" shape-rendering="geometricPrecision" stroke="rgb(18,62,162)" stroke-miterlimit="1.45">
      <rect fill="none" x="735" width="30" height="30" y="225" clip-path="url(#clipPath2)"/>
    </g>
    <g fill="url(#linearGradient9)" text-rendering="geometricPrecision" shape-rendering="geometricPrecision" transform="matrix(1,0,0,1,-360,72)" stroke="url(#linearGradient9)">
      <circle r="15" clip-path="url(#clipPath2)" cx="540" cy="-41.5472" stroke="none"/>
    </g>
    <g stroke-linecap="butt" transform="matrix(1,0,0,1,-360,72)" fill="rgb(18,62,162)" text-rendering="geometricPrecision" shape-rendering="geometricPrecision" stroke="rgb(18,62,162)" stroke-miterlimit="1.45">
      <circle fill="none" r="15" clip-path="url(#clipPath2)" cx="540" cy="-41.5472"/>
      <text x="561" y="-37.3929" clip-path="url(#clipPath2)" fill="black" font-family="sans-serif" stroke="none" xml:space="preserve">owl:Thing</text>
    </g>
    <g fill="url(#linearGradient10)" text-rendering="geometricPrecision" shape-rendering="geometricPrecision" transform="matrix(1,0,0,1,-360,72)" stroke="url(#linearGradient10)">
      <circle r="15" clip-path="url(#clipPath2)" cx="525" cy="180" stroke="none"/>
    </g>
    <g stroke-linecap="butt" transform="matrix(1,0,0,1,-360,72)" fill="rgb(18,62,162)" text-rendering="geometricPrecision" shape-rendering="geometricPrecision" stroke="rgb(18,62,162)" stroke-miterlimit="1.45">
      <circle fill="none" r="15" clip-path="url(#clipPath2)" cx="525" cy="180"/>
    </g>
    <g fill="url(#linearGradient11)" text-rendering="geometricPrecision" shape-rendering="geometricPrecision" transform="matrix(1,0,0,1,-360,72)" stroke="url(#linearGradient11)">
      <circle r="15" clip-path="url(#clipPath2)" cx="660" cy="150" stroke="none"/>
    </g>
    <g stroke-linecap="butt" transform="matrix(1,0,0,1,-360,72)" fill="rgb(18,62,162)" text-rendering="geometricPrecision" shape-rendering="geometricPrecision" stroke="rgb(18,62,162)" stroke-miterlimit="1.45">
      <circle fill="none" r="15" clip-path="url(#clipPath2)" cx="660" cy="150"/>
    </g>
    <g fill="url(#linearGradient12)" text-rendering="geometricPrecision" shape-rendering="geometricPrecision" transform="matrix(1,0,0,1,-360,72)" stroke="url(#linearGradient12)">
      <circle r="15" clip-path="url(#clipPath2)" cx="600" cy="180" stroke="none"/>
    </g>
    <g stroke-linecap="butt" transform="matrix(1,0,0,1,-360,72)" fill="rgb(18,62,162)" text-rendering="geometricPrecision" shape-rendering="geometricPrecision" stroke="rgb(18,62,162)" stroke-miterlimit="1.45">
      <circle fill="none" r="15" clip-path="url(#clipPath2)" cx="600" cy="180"/>
    </g>
    <g fill="url(#linearGradient13)" text-rendering="geometricPrecision" shape-rendering="geometricPrecision" transform="matrix(1,0,0,1,-360,72)" stroke="url(#linearGradient13)">
      <circle r="15" clip-path="url(#clipPath2)" cx="525" cy="60" stroke="none"/>
    </g>
    <g stroke-linecap="butt" transform="matrix(1,0,0,1,-360,72)" fill="rgb(18,62,162)" text-rendering="geometricPrecision" shape-rendering="geometricPrecision" stroke="rgb(18,62,162)" stroke-miterlimit="1.45">
      <circle fill="none" r="15" clip-path="url(#clipPath2)" cx="525" cy="60"/>
    </g>
    <g fill="url(#linearGradient14)" text-rendering="geometricPrecision" shape-rendering="geometricPrecision" transform="matrix(1,0,0,1,-360,72)" stroke="url(#linearGradient14)">
      <circle r="15" clip-path="url(#clipPath2)" cx="525" cy="120" stroke="none"/>
    </g>
    <g stroke-linecap="butt" transform="matrix(1,0,0,1,-360,72)" fill="rgb(18,62,162)" text-rendering="geometricPrecision" shape-rendering="geometricPrecision" stroke="rgb(18,62,162)" stroke-miterlimit="1.45">
      <circle fill="none" r="15" clip-path="url(#clipPath2)" cx="525" cy="120"/>
    </g>
    <g fill="url(#linearGradient15)" text-rendering="geometricPrecision" shape-rendering="geometricPrecision" transform="matrix(1,0,0,1,-360,72)" stroke="url(#linearGradient15)">
      <circle r="15" clip-path="url(#clipPath2)" cx="600" cy="120" stroke="none"/>
    </g>
    <g stroke-linecap="butt" transform="matrix(1,0,0,1,-360,72)" fill="rgb(18,62,162)" text-rendering="geometricPrecision" shape-rendering="geometricPrecision" stroke="rgb(18,62,162)" stroke-miterlimit="1.45">
      <circle fill="none" r="15" clip-path="url(#clipPath2)" cx="600" cy="120"/>
    </g>
    <g fill="url(#linearGradient16)" text-rendering="geometricPrecision" shape-rendering="geometricPrecision" transform="matrix(1,0,0,1,-360,72)" stroke="url(#linearGradient16)">
      <circle r="15" clip-path="url(#clipPath2)" cx="660" cy="60" stroke="none"/>
    </g>
    <g stroke-linecap="butt" transform="matrix(1,0,0,1,-360,72)" fill="rgb(18,62,162)" text-rendering="geometricPrecision" shape-rendering="geometricPrecision" stroke="rgb(18,62,162)" stroke-miterlimit="1.45">
      <circle fill="none" r="15" clip-path="url(#clipPath2)" cx="660" cy="60"/>
    </g>
    <g fill="url(#linearGradient17)" text-rendering="geometricPrecision" shape-rendering="geometricPrecision" transform="matrix(1,0,0,1,-360,72)" stroke="url(#linearGradient17)">
      <circle r="15" clip-path="url(#clipPath2)" cx="390" cy="180" stroke="none"/>
    </g>
    <g stroke-linecap="butt" transform="matrix(1,0,0,1,-360,72)" fill="rgb(18,62,162)" text-rendering="geometricPrecision" shape-rendering="geometricPrecision" stroke="rgb(18,62,162)" stroke-miterlimit="1.45">
      <circle fill="none" r="15" clip-path="url(#clipPath2)" cx="390" cy="180"/>
    </g>
    <g fill="url(#linearGradient18)" text-rendering="geometricPrecision" shape-rendering="geometricPrecision" transform="matrix(1,0,0,1,-360,72)" stroke="url(#linearGradient18)">
      <path d="M585 75 L589.5 67.7942 L597.9904 67.5 L594 60 L597.9904 52.5 L589.5 52.2058 L585 45 L580.5 52.2058 L572.0096 52.5 L576 60 L572.0096 67.5 L580.5 67.7942 Z" fill-rule="evenodd" clip-path="url(#clipPath2)" stroke="none"/>
    </g>
    <g stroke-linecap="butt" transform="matrix(1,0,0,1,-360,72)" fill="rgb(18,62,162)" text-rendering="geometricPrecision" shape-rendering="geometricPrecision" stroke="rgb(18,62,162)" stroke-miterlimit="1.45">
      <path fill="none" d="M585 75 L589.5 67.7942 L597.9904 67.5 L594 60 L597.9904 52.5 L589.5 52.2058 L585 45 L580.5 52.2058 L572.0096 52.5 L576 60 L572.0096 67.5 L580.5 67.7942 Z" fill-rule="evenodd" clip-path="url(#clipPath2)"/>
    </g>
    <g fill="url(#linearGradient19)" text-rendering="geometricPrecision" shape-rendering="geometricPrecision" transform="matrix(1,0,0,1,-360,72)" stroke="url(#linearGradient19)">
      <path d="M390 75 L394.5 67.7942 L402.9904 67.5 L399 60 L402.9904 52.5 L394.5 52.2058 L390 45 L385.5 52.2058 L377.0096 52.5 L381 60 L377.0096 67.5 L385.5 67.7942 Z" fill-rule="evenodd" clip-path="url(#clipPath2)" stroke="none"/>
    </g>
    <g stroke-linecap="butt" transform="matrix(1,0,0,1,-360,72)" fill="rgb(18,62,162)" text-rendering="geometricPrecision" shape-rendering="geometricPrecision" stroke="rgb(18,62,162)" stroke-miterlimit="1.45">
      <path fill="none" d="M390 75 L394.5 67.7942 L402.9904 67.5 L399 60 L402.9904 52.5 L394.5 52.2058 L390 45 L385.5 52.2058 L377.0096 52.5 L381 60 L377.0096 67.5 L385.5 67.7942 Z" fill-rule="evenodd" clip-path="url(#clipPath2)"/>
    </g>
    <g fill="url(#linearGradient20)" text-rendering="geometricPrecision" shape-rendering="geometricPrecision" transform="matrix(1,0,0,1,-360,72)" stroke="url(#linearGradient20)">
      <circle r="15" clip-path="url(#clipPath2)" cx="540" cy="9.6" stroke="none"/>
    </g>
    <g stroke-linecap="butt" transform="matrix(1,0,0,1,-360,72)" fill="rgb(18,62,162)" text-rendering="geometricPrecision" shape-rendering="geometricPrecision" stroke="rgb(18,62,162)" stroke-miterlimit="1.45">
      <circle fill="none" r="15" clip-path="url(#clipPath2)" cx="540" cy="9.6"/>
    </g>
    <g fill="url(#linearGradient21)" text-rendering="geometricPrecision" shape-rendering="geometricPrecision" transform="matrix(1,0,0,1,-360,72)" stroke="url(#linearGradient21)">
      <circle r="15" clip-path="url(#clipPath2)" cx="630" cy="9.6" stroke="none"/>
    </g>
    <g stroke-linecap="butt" transform="matrix(1,0,0,1,-360,72)" fill="rgb(18,62,162)" text-rendering="geometricPrecision" shape-rendering="geometricPrecision" stroke="rgb(18,62,162)" stroke-miterlimit="1.45">
      <circle fill="none" r="15" clip-path="url(#clipPath2)" cx="630" cy="9.6"/>
    </g>
    <g fill="url(#linearGradient22)" text-rendering="geometricPrecision" shape-rendering="geometricPrecision" transform="matrix(1,0,0,1,-360,72)" stroke="url(#linearGradient22)">
      <circle r="15" clip-path="url(#clipPath2)" cx="750" cy="120" stroke="none"/>
    </g>
    <g stroke-linecap="butt" transform="matrix(1,0,0,1,-360,72)" fill="rgb(18,62,162)" text-rendering="geometricPrecision" shape-rendering="geometricPrecision" stroke="rgb(18,62,162)" stroke-miterlimit="1.45">
      <circle fill="none" r="15" clip-path="url(#clipPath2)" cx="750" cy="120"/>
    </g>
    <g fill="url(#linearGradient23)" text-rendering="geometricPrecision" shape-rendering="geometricPrecision" transform="matrix(1,0,0,1,-360,72)" stroke="url(#linearGradient23)">
      <path d="M810 135 L814.5 127.7942 L822.9904 127.5 L819 120 L822.9904 112.5 L814.5 112.2058 L810 105 L805.5 112.2058 L797.0096 112.5 L801 120 L797.0096 127.5 L805.5 127.7942 Z" fill-rule="evenodd" clip-path="url(#clipPath2)" stroke="none"/>
    </g>
    <g stroke-linecap="butt" transform="matrix(1,0,0,1,-360,72)" fill="rgb(18,62,162)" text-rendering="geometricPrecision" shape-rendering="geometricPrecision" stroke="rgb(18,62,162)" stroke-miterlimit="1.45">
      <path fill="none" d="M810 135 L814.5 127.7942 L822.9904 127.5 L819 120 L822.9904 112.5 L814.5 112.2058 L810 105 L805.5 112.2058 L797.0096 112.5 L801 120 L797.0096 127.5 L805.5 127.7942 Z" fill-rule="evenodd" clip-path="url(#clipPath2)"/>
    </g>
    <g text-rendering="geometricPrecision" stroke-miterlimit="1.45" shape-rendering="geometricPrecision" transform="matrix(1,0,0,1,-360,72)" stroke-linecap="butt">
      <path fill="none" d="M450 105 L450 90" clip-path="url(#clipPath2)"/>
      <path fill="white" d="M450 75 L444 91 L456 91 Z" clip-path="url(#clipPath2)" stroke="none"/>
      <path fill="none" d="M450 75 L444 91 L456 91 Z" clip-path="url(#clipPath2)"/>
    </g>
    <g text-rendering="geometricPrecision" stroke-miterlimit="1.45" shape-rendering="geometricPrecision" transform="matrix(1,0,0,1,-360,72)" stroke-linecap="butt">
      <path fill="none" d="M476.25 225 L456.3059 145.2237" clip-path="url(#clipPath2)"/>
      <path d="M453.638 134.5521 L450.7276 147.6491 L462.3693 144.7386 Z" clip-path="url(#clipPath2)" stroke="none"/>
    </g>
    <g text-rendering="geometricPrecision" stroke-miterlimit="1.45" shape-rendering="geometricPrecision" transform="matrix(1,0,0,1,-360,72)" stroke-linecap="butt">
      <path fill="none" d="M459.9491 48.7744 L520.1017 -19.0959" clip-path="url(#clipPath2)"/>
      <path fill="white" d="M530.0508 -30.3216 L514.9482 -22.3272 L523.9287 -14.3679 Z" clip-path="url(#clipPath2)" stroke="none"/>
      <path fill="none" d="M530.0508 -30.3216 L514.9482 -22.3272 L523.9287 -14.3679 Z" clip-path="url(#clipPath2)"/>
    </g>
    <g text-rendering="geometricPrecision" stroke-miterlimit="1.45" shape-rendering="geometricPrecision" transform="matrix(1,0,0,1,-360,72)" stroke-linecap="butt">
      <path fill="none" d="M491.25 225 L509.4 200.8" clip-path="url(#clipPath2)"/>
      <path d="M516 192 L504 198 L513.6 205.2 Z" clip-path="url(#clipPath2)" stroke="none"/>
    </g>
    <g text-rendering="geometricPrecision" stroke-miterlimit="1.45" shape-rendering="geometricPrecision" transform="matrix(1,0,0,1,-360,72)" stroke-linecap="butt">
      <path fill="none" d="M558.75 225 L540.6 200.8" clip-path="url(#clipPath2)"/>
      <path d="M534 192 L536.4 205.2 L546 198 Z" clip-path="url(#clipPath2)" stroke="none"/>
    </g>
    <g text-rendering="geometricPrecision" stroke-miterlimit="1.45" shape-rendering="geometricPrecision" transform="matrix(1,0,0,1,-360,72)" stroke-linecap="butt">
      <path fill="none" d="M660 225 L660 176" clip-path="url(#clipPath2)"/>
      <path d="M660 165 L654 177 L666 177 Z" clip-path="url(#clipPath2)" stroke="none"/>
    </g>
    <g text-rendering="geometricPrecision" stroke-miterlimit="1.45" shape-rendering="geometricPrecision" transform="matrix(1,0,0,1,-360,72)" stroke-linecap="butt">
      <path fill="none" d="M495 232.5 L576.7449 191.6275" clip-path="url(#clipPath2)"/>
      <path d="M586.5836 186.7082 L573.1672 186.7082 L578.5337 197.4413 Z" clip-path="url(#clipPath2)" stroke="none"/>
    </g>
    <g text-rendering="geometricPrecision" stroke-miterlimit="1.45" shape-rendering="geometricPrecision" transform="matrix(1,0,0,1,-360,72)" stroke-linecap="butt">
      <path fill="none" d="M577.5 225 L588.3724 203.2551" clip-path="url(#clipPath2)"/>
      <path d="M593.2918 193.4164 L582.5587 201.4662 L593.2918 206.8328 Z" clip-path="url(#clipPath2)" stroke="none"/>
    </g>
    <g text-rendering="geometricPrecision" stroke-miterlimit="1.45" shape-rendering="geometricPrecision" transform="matrix(1,0,0,1,-360,72)" stroke-linecap="butt">
      <path fill="none" d="M525 165 L525 150" clip-path="url(#clipPath2)"/>
      <path fill="white" d="M525 135 L519 151 L531 151 Z" clip-path="url(#clipPath2)" stroke="none"/>
      <path fill="none" d="M525 135 L519 151 L531 151 Z" clip-path="url(#clipPath2)"/>
    </g>
    <g text-rendering="geometricPrecision" stroke-miterlimit="1.45" shape-rendering="geometricPrecision" transform="matrix(1,0,0,1,-360,72)" stroke-linecap="butt">
      <path fill="none" d="M525 105 L525 90" clip-path="url(#clipPath2)"/>
      <path fill="white" d="M525 75 L519 91 L531 91 Z" clip-path="url(#clipPath2)" stroke="none"/>
      <path fill="none" d="M525 75 L519 91 L531 91 Z" clip-path="url(#clipPath2)"/>
    </g>
    <g text-rendering="geometricPrecision" stroke-miterlimit="1.45" shape-rendering="geometricPrecision" transform="matrix(1,0,0,1,-360,72)" stroke-linecap="butt">
      <path fill="none" d="M652.5 225 L611.6276 143.2551" clip-path="url(#clipPath2)"/>
      <path d="M606.7082 133.4164 L606.7082 146.8328 L617.4413 141.4662 Z" clip-path="url(#clipPath2)" stroke="none"/>
    </g>
    <g text-rendering="geometricPrecision" stroke-miterlimit="1.45" shape-rendering="geometricPrecision" transform="matrix(1,0,0,1,-360,72)" stroke-linecap="butt">
      <path fill="none" d="M600 165 L600 150" clip-path="url(#clipPath2)"/>
      <path fill="white" d="M600 135 L594 151 L606 151 Z" clip-path="url(#clipPath2)" stroke="none"/>
      <path fill="none" d="M600 135 L594 151 L606 151 Z" clip-path="url(#clipPath2)"/>
    </g>
    <g text-rendering="geometricPrecision" stroke-miterlimit="1.45" shape-rendering="geometricPrecision" transform="matrix(1,0,0,1,-360,72)" stroke-linecap="butt">
      <path fill="none" d="M660 135 L660 90" clip-path="url(#clipPath2)"/>
      <path fill="white" d="M660 75 L654 91 L666 91 Z" clip-path="url(#clipPath2)" stroke="none"/>
      <path fill="none" d="M660 75 L654 91 L666 91 Z" clip-path="url(#clipPath2)"/>
    </g>
    <g text-rendering="geometricPrecision" stroke-miterlimit="1.45" shape-rendering="geometricPrecision" transform="matrix(1,0,0,1,-360,72)" stroke-linecap="butt">
      <path fill="none" d="M610.6066 109.3934 L638.7868 81.2132" clip-path="url(#clipPath2)"/>
      <path fill="white" d="M649.3934 70.6066 L633.837 77.6777 L642.3223 86.1629 Z" clip-path="url(#clipPath2)" stroke="none"/>
      <path fill="none" d="M649.3934 70.6066 L633.837 77.6777 L642.3223 86.1629 Z" clip-path="url(#clipPath2)"/>
    </g>
    <g text-rendering="geometricPrecision" stroke-miterlimit="1.45" shape-rendering="geometricPrecision" transform="matrix(1,0,0,1,-360,72)" stroke-linecap="butt">
      <path fill="none" d="M742.5 225 L671.6276 83.2551" clip-path="url(#clipPath2)"/>
      <path d="M666.7082 73.4164 L666.7082 86.8328 L677.4413 81.4662 Z" clip-path="url(#clipPath2)" stroke="none"/>
    </g>
    <g text-rendering="geometricPrecision" stroke-miterlimit="1.45" shape-rendering="geometricPrecision" transform="matrix(1,0,0,1,-360,72)" stroke-linecap="butt">
      <path fill="none" d="M675 60 L702.9912 60" clip-path="url(#clipPath2)"/>
      <path d="M710.9912 60 L698.9912 55 L701.9912 60 L698.9912 65 Z" clip-path="url(#clipPath2)" stroke="none"/>
    </g>
    <g text-rendering="geometricPrecision" stroke-miterlimit="1.45" shape-rendering="geometricPrecision" transform="matrix(1,0,0,1,-360,72)" stroke-linecap="butt">
      <path fill="none" d="M390 225 L390 206" clip-path="url(#clipPath2)"/>
      <path d="M390 195 L384 207 L396 207 Z" clip-path="url(#clipPath2)" stroke="none"/>
    </g>
    <g text-rendering="geometricPrecision" stroke-miterlimit="1.45" shape-rendering="geometricPrecision" transform="matrix(1,0,0,1,-360,72)" stroke-linecap="butt">
      <path fill="none" d="M400.6066 169.3934 L428.7868 141.2132" clip-path="url(#clipPath2)"/>
      <path fill="white" d="M439.3934 130.6066 L423.8371 137.6777 L432.3224 146.1629 Z" clip-path="url(#clipPath2)" stroke="none"/>
      <path fill="none" d="M439.3934 130.6066 L423.8371 137.6777 L432.3224 146.1629 Z" clip-path="url(#clipPath2)"/>
    </g>
    <g text-rendering="geometricPrecision" stroke-miterlimit="1.45" shape-rendering="geometricPrecision" transform="matrix(1,0,0,1,-360,72)" stroke-linecap="butt">
      <path fill="none" d="M540 60 L567.9912 60" clip-path="url(#clipPath2)"/>
      <path d="M575.9912 60 L563.9912 55 L566.9912 60 L563.9912 65 Z" clip-path="url(#clipPath2)" stroke="none"/>
      <path fill="none" d="M435 60 L407.0088 60" clip-path="url(#clipPath2)"/>
      <path d="M399.0088 60 L411.0088 65 L408.0088 60 L411.0088 55 Z" clip-path="url(#clipPath2)" stroke="none"/>
    </g>
    <g text-rendering="geometricPrecision" stroke-miterlimit="1.45" shape-rendering="geometricPrecision" transform="matrix(1,0,0,1,-360,72)" stroke-linecap="butt">
      <path fill="none" d="M529.2788 45.6232 L531.4424 38.3536" clip-path="url(#clipPath2)"/>
      <path fill="white" d="M535.7212 23.9768 L525.4064 37.6005 L536.9078 41.0235 Z" clip-path="url(#clipPath2)" stroke="none"/>
      <path fill="none" d="M535.7212 23.9768 L525.4064 37.6005 L536.9078 41.0235 Z" clip-path="url(#clipPath2)"/>
    </g>
    <g text-rendering="geometricPrecision" stroke-miterlimit="1.45" shape-rendering="geometricPrecision" transform="matrix(1,0,0,1,-360,72)" stroke-linecap="butt">
      <path fill="none" d="M540 -5.4 L540 -11.5472" clip-path="url(#clipPath2)"/>
      <path fill="white" d="M540 -26.5472 L534 -10.5472 L546 -10.5472 Z" clip-path="url(#clipPath2)" stroke="none"/>
      <path fill="none" d="M540 -26.5472 L534 -10.5472 L546 -10.5472 Z" clip-path="url(#clipPath2)"/>
    </g>
    <g text-rendering="geometricPrecision" stroke-miterlimit="1.45" shape-rendering="geometricPrecision" transform="matrix(1,0,0,1,-360,72)" stroke-linecap="butt">
      <path fill="none" d="M652.3278 47.1106 L645.3445 35.3788" clip-path="url(#clipPath2)"/>
      <path fill="white" d="M637.6722 22.4894 L640.7003 39.307 L651.0118 33.1692 Z" clip-path="url(#clipPath2)" stroke="none"/>
      <path fill="none" d="M637.6722 22.4894 L640.7003 39.307 L651.0118 33.1692 Z" clip-path="url(#clipPath2)"/>
    </g>
    <g text-rendering="geometricPrecision" stroke-miterlimit="1.45" shape-rendering="geometricPrecision" transform="matrix(1,0,0,1,-360,72)" stroke-linecap="butt">
      <path fill="none" d="M616.9588 2.1887 L566.0823 -26.7245" clip-path="url(#clipPath2)"/>
      <path fill="white" d="M553.0412 -34.1359 L563.9872 -21.014 L569.9163 -31.4469 Z" clip-path="url(#clipPath2)" stroke="none"/>
      <path fill="none" d="M553.0412 -34.1359 L563.9872 -21.014 L569.9163 -31.4469 Z" clip-path="url(#clipPath2)"/>
    </g>
    <g text-rendering="geometricPrecision" stroke-miterlimit="1.45" shape-rendering="geometricPrecision" transform="matrix(1,0,0,1,-360,72)" stroke-linecap="butt">
      <path fill="none" d="M750 225 L750 146" clip-path="url(#clipPath2)"/>
      <path d="M750 135 L744 147 L756 147 Z" clip-path="url(#clipPath2)" stroke="none"/>
    </g>
    <g text-rendering="geometricPrecision" stroke-miterlimit="1.45" shape-rendering="geometricPrecision" transform="matrix(1,0,0,1,-360,72)" stroke-linecap="butt">
      <path fill="none" d="M737.5192 111.6795 L684.9615 76.641" clip-path="url(#clipPath2)"/>
      <path fill="white" d="M672.4808 68.3205 L682.4653 82.188 L689.1218 72.2034 Z" clip-path="url(#clipPath2)" stroke="none"/>
      <path fill="none" d="M672.4808 68.3205 L682.4653 82.188 L689.1218 72.2034 Z" clip-path="url(#clipPath2)"/>
    </g>
    <g text-rendering="geometricPrecision" stroke-miterlimit="1.45" shape-rendering="geometricPrecision" transform="matrix(1,0,0,1,-360,72)" stroke-linecap="butt">
      <path fill="none" d="M765 120 L792.9912 120" clip-path="url(#clipPath2)"/>
      <path d="M800.9912 120 L788.9912 115 L791.9912 120 L788.9912 125 Z" clip-path="url(#clipPath2)" stroke="none"/>
    </g>
  </g>
</svg>
